<svg xmlns="http://www.w3.org/2000/svg" width="63.783" height="72.581" viewBox="0 0 63.783 72.581"><path d="M130.692,175.859a3.55,3.55,0,1,0,3.5,3.546A3.55,3.55,0,0,0,130.692,175.859Z" transform="translate(-82.641 -114.33)" fill="none"/><path d="M91.673,182.59H77.91a7.152,7.152,0,0,1,0,2.8c3.333.329,13.77,0,13.77,0a7.17,7.17,0,0,1,0-2.8Z" transform="translate(-50.661 -118.707)" fill="none"/><path d="M45.474,167.66a6.488,6.488,0,1,0,6.572,6.488A6.488,6.488,0,0,0,45.474,167.66Zm0,11.014a4.42,4.42,0,1,1,.007,0Z" transform="translate(-25.405 -108.998)" fill="none"/><path d="M167.873,140.731v9.793a1.661,1.661,0,0,0,.493,1.21,1.049,1.049,0,0,0,.7.3h.773a1.382,1.382,0,0,0,1.2-1.511v-9.793a1.38,1.38,0,0,0-1.2-1.511h-.773a1.049,1.049,0,0,0-.7.3,1.654,1.654,0,0,0-.5,1.2Z" transform="translate(-109.158 -90.505)" fill="none"/><path d="M49.929,175.855a3.83,3.83,0,1,0,3.69,3.826,3.763,3.763,0,0,0-3.69-3.826Z" transform="translate(-29.885 -114.326)" fill="none"/><path d="M158.254,182.519a7.17,7.17,0,0,1,0,2.8s3.5.43,3.938,0a4.851,4.851,0,0,0,0-2.672.96.96,0,0,0-.7-.154H158.24A.1.1,0,0,1,158.254,182.519Z" transform="translate(-102.896 -118.636)" fill="none"/><path d="M125.367,167.66a6.589,6.589,0,1,0,6.551,6.589A6.589,6.589,0,0,0,125.367,167.66Zm-.143,10.814a4.3,4.3,0,1,1,4.232-4.3,4.3,4.3,0,0,1-4.232,4.3Z" transform="translate(-77.211 -108.998)" fill="none"/><path d="M77.437,109.272H68.106a1.455,1.455,0,0,1-1.455-1.455h0v-7.754a1.455,1.455,0,0,1,1.455-1.455H75.2a9.212,9.212,0,0,0-2.815-2.728,8.685,8.685,0,0,0-1.27-.644,7.055,7.055,0,0,0-2.015-.514l-2.319-.028c-1.4-.021-3.351-.052-5.631-.08l-1.675-.021L57.6,94.575c-1.588,0-3.634-.031-5.33-.045H46.212c-3.6,0-7.023.028-9.716.1-.651,0-1.252.038-1.812.059-.49.021-.948.042-1.357.066a3.711,3.711,0,0,0-3.116,1.878,1.966,1.966,0,0,0-.115.451c-.042.252-.08.588-.115.993-.224,2.522.038,7.852,0,13.595,0,0,32.785.528,43.718.227.944-.024,3.763-.227,3.763-.227h-.094A23.223,23.223,0,0,0,77.437,109.272Zm-41.8-1.689h-2.91c-.29,0-.525-.175-.525-.4s.234-.4.525-.4h2.91c.287,0,.525.178.525.4S35.922,107.583,35.635,107.583Zm0-1.441h-2.91c-.29,0-.525-.168-.525-.374s.234-.374.525-.374h2.91c.287,0,.525.168.525.374S35.922,106.142,35.635,106.142Zm14.577,1.675a1.493,1.493,0,0,1-1.493,1.493h-9.7a1.5,1.5,0,0,1-1.5-1.493v-7.754a1.5,1.5,0,0,1,1.5-1.493h9.7a1.493,1.493,0,0,1,1.493,1.493Zm14.539,0a1.493,1.493,0,0,1-1.493,1.493H53.567a1.5,1.5,0,0,1-1.5-1.493v-7.754a1.5,1.5,0,0,1,1.5-1.493h9.691a1.493,1.493,0,0,1,1.493,1.493Z" transform="translate(-19.435 -61.446)" fill="none"/><path d="M106.125,108.34H96.559c-.7,0-.7.654-.7.9v7.635a.7.7,0,0,0,.609.56l9.6.115c.444,0,.727-.577.738-.822.1-2.231-.213-7.694-.213-7.694C106.6,108.8,106.52,108.34,106.125,108.34Z" transform="translate(-62.333 -70.426)" fill="none"/><path d="M64.338,108.34H54.385a.465.465,0,0,0-.455.472v8.216a.465.465,0,0,0,.455.472h9.954a.465.465,0,0,0,.458-.472v-8.216A.465.465,0,0,0,64.338,108.34Z" transform="translate(-35.068 -70.426)" fill="none"/><path d="M32.55,158.1a.093.093,0,0,1,.028-.08,7.3,7.3,0,0,1,13.745,0s10.622.35,14.364,0a7.3,7.3,0,0,1,13.745,0H77.3c0-1.434-.024-5.575,0-11.566H29.913c-.021,3.994-.262,7.418.017,11.566h.042Z" transform="translate(-19.375 -95.207)" fill="none"/><path d="M165.88,143.45V144.5h0Z" transform="translate(-107.864 -93.256)" fill="none"/><path d="M29.29,182.463a.088.088,0,0,0,0-.028c-.294,0-2.273,0-2.973-.035-.227,0-.783-.063-.923.115a5.293,5.293,0,0,0,0,2.822c.206.175,3.5-.049,3.91,0a7.62,7.62,0,0,1-.154-1.472A7.237,7.237,0,0,1,29.29,182.463Z" transform="translate(-16.388 -118.576)" fill="none"/><path d="M136.371,31.014c-.388.476-.892.9-.8,1.612a29.561,29.561,0,0,0,.556,3.882,13.819,13.819,0,0,1,2.036-.577,13.969,13.969,0,0,1,2.119.028c1.787-1.4,2.962-2.55,3.19-4.2a6.7,6.7,0,0,1-4.11,3.06c.042-.231,0-.434.1-.5.213-.175.49-.266.717-.427a11.066,11.066,0,0,0,1.77-1.315,6.873,6.873,0,0,0,1.221-1.843c.266-.57.752-1.116.546-1.868-.881,0-1.749.024-2.6.017A5.793,5.793,0,0,0,136.371,31.014Z" transform="translate(-88.148 -18.75)" fill="none"/><path d="M27.083,63.94H27.7c.059.514.112.99.168,1.472l1.4-.539c-.29-1.049-.57-2-.832-2.969a10.492,10.492,0,0,1-.462-1.987,19.586,19.586,0,0,0-.493-2.676c-.2-.948-.392-1.9-.546-2.85a.539.539,0,0,0-.556-.528c-.119.28.276.72-.3.923,0-.815-.329-1.34-1.2-1.368,0,.35.238.745-.213,1.133a4.172,4.172,0,0,1-.2-.577,1.088,1.088,0,0,0-.969-.927c-.871-.189-1.749-.4-2.606-.584-.35-.073-.682-.129-1.025-.171-.654-.08-1.354-.126-2.029-.224-.93-.112-1.861-.234-2.819-.35.07.633.091,1.214.206,1.773a16.721,16.721,0,0,0,.542,1.98,9.681,9.681,0,0,1,.388,3.148,7.012,7.012,0,0,0,.077,1.591,14.525,14.525,0,0,0,.7,2.015c.276.7.623,1.347.885,2.036.308.8.56,1.626.825,2.448a1.441,1.441,0,0,1,.084.528c-.031.43-.1.857-.14,1.291s-.049.944-.077,1.49c.409-.1.8-.234,1.2-.374a4.547,4.547,0,0,1,.3-1.42,4.75,4.75,0,0,1,3.97-2.385c.511-.031,1.088-.059,1.724-.08,0-.21.031-.42.028-.63a.462.462,0,0,1,.483-.514c.269-.028.416.231.392.6a3.765,3.765,0,0,1-.024.514l.822-.021A2.785,2.785,0,0,1,27.083,63.94Z" transform="translate(-9.76 -33.608)" fill="none"/><path d="M84.017,33.2a.98.98,0,0,0-.049-.3,5.726,5.726,0,0,0-.185-.637c-.035-.017-.063-.038-.1-.059l.056-.045c-.514-1.35-1.378-2-1.749-3.637-.073-.35,0-.7-.084-1.049-.112-.535-.308-1.049-.423-1.584a86.261,86.261,0,0,1-1.633-9.7,1.7,1.7,0,0,0-.108-.35c-.133-.385-.269-.766-.4-1.147a8.111,8.111,0,0,1-.35-1.077,13.789,13.789,0,0,1-.6-2.424,22.218,22.218,0,0,0-.248-2.249L77.9,6.763c-.049-.416-.1-.832-.161-1.343-.633.441-1.161.829-1.71,1.189-1.3.853-2.6,1.689-3.9,2.536-1.567,1.021-3.1,2.1-4.715,3.046a24.708,24.708,0,0,0-2.669,1.749c-1.546,1.186-3.2,2.221-4.69,3.5-1.189,1.014-2.539,1.826-3.816,2.735-.35.252-.7.5-1.049.755-1.221.9-2.4,1.8-3.6,2.707-.091.07-.227.143-.248.238a2.606,2.606,0,0,0,.084,1.567c.769-1.011,1.448-2.008,2.753-2.256-.024.073-.024.136-.056.168-.64.654-1.322,1.266-1.91,1.962-.392.462-.787,1.007-.35,1.728l.248-.259c.437-.462.846-.951,1.322-1.375a11.965,11.965,0,0,1,1.584-1.2,19.711,19.711,0,0,1,3.921-2.364c.612-.206,1.242-.35,1.833-.612a2.13,2.13,0,0,1,1.871.133,11.039,11.039,0,0,0-1.563.28,21.684,21.684,0,0,0-3.081,1.437,18.449,18.449,0,0,0-3.179,2.1,1.92,1.92,0,0,1-.385.252,5.047,5.047,0,0,0-1.6,1.486c-.245.318-.427.727-.9.752l.238,1.161a12.518,12.518,0,0,0,1.749.35,17.179,17.179,0,0,0,3.7.164,1.193,1.193,0,0,1,.458,0A3.735,3.735,0,0,0,59.5,29.28a14.4,14.4,0,0,1,3.973-.052,9.9,9.9,0,0,1-3.616.6A30.176,30.176,0,0,1,56.044,30c-1.235-.024-2.466-.2-3.77-.311.122.588.238,1.151.35,1.668.941.455,1.854.85,2.725,1.326a16.165,16.165,0,0,0,2.966.776c-1.34.4-3.081-.021-5.5-1.252.234.682.455,1.319.661,1.924,1.119.311,2.14.609,3.165.874,1.71.448,3.41.094,5.117.493,10.1,0,20.953.518,21.125.521h1.64c-.143-.371-.283-.741-.423-1.105A2.62,2.62,0,0,1,84.017,33.2Z" transform="translate(-33.328 -3.502)" fill="none"/><path d="M150.615,84.658a20.807,20.807,0,0,1-3.337-.63c-.154-.073-.3-.157-.458-.248a3.312,3.312,0,0,1,.126.913c.206.679,0,.72.2,1.4a4.111,4.111,0,0,0,1.273,1.605,10.145,10.145,0,0,1,1.179.731,2.527,2.527,0,0,0,2.025-.14c-.574-.217-.986-.4-1.4-.528-.35-.108-.423-.318-.29-.734,1.238.35,2.448.892,3.634.038A4.724,4.724,0,0,0,150.615,84.658Z" transform="translate(-95.47 -54.455)" fill="none"/><path d="M130.256,8.077c.465-.465.864-.923,1.322-1.308a3.819,3.819,0,0,1,2.843-1.1.549.549,0,0,1,.584.553,3.777,3.777,0,0,1,0,.444c.57-.857.325-2.1-.525-3.249l-.822.878c-.308-.406-.318-.413-.15-.7a2.487,2.487,0,0,0,.434-1.493c-.434-.14-.434-.14-1.133.143-1.4.574-1.4.581-2.05,1.948a2.674,2.674,0,0,1-.185.42,3.839,3.839,0,0,0-.462,2.969,3.228,3.228,0,0,0,.143.5Z" transform="translate(-84.545 -1.283)" fill="none"/><path d="M160.2,59l-1.546.476c.094.724.094.731-.511.983-.542.227-1.091.437-1.633.665a1.207,1.207,0,0,0-.448.269c-.308.371-.581.766-.944,1.252.206.045.3.07.392.087a9.687,9.687,0,0,1,3.924,1.147,1.53,1.53,0,0,0,1.714.168c.616-.367,1.21-.633,1.4-1.4l-2.829.35c-.154-.7-.08-.885.318-.836a19.415,19.415,0,0,0,3.309-.35c.2,0,.378-.175.623-.29C163.01,60.074,161.559,59.612,160.2,59Z" transform="translate(-100.867 -38.342)" fill="none"/><path d="M150.35,72.02a11.845,11.845,0,0,0-2.585-.7,6.557,6.557,0,0,0-2.4.052,8.394,8.394,0,0,1-3.34.059c.231,1.112.423,1.4.682,2.483a1.266,1.266,0,0,0,.451.567,4.9,4.9,0,0,0,1.4.759c.514.2,1.049.294,1.861.581,1.948.15,3.274.567,4.813,0,.42-.157.22.2.413-.4H150a3.092,3.092,0,0,1-1.588-.5c-1.049-.626-1.049-.623-1.119-.972.574.185,1.123.385,1.682.542a5.945,5.945,0,0,0,1.182.234c.609.042,1.224.035,1.836.024a2.987,2.987,0,0,0,1.924-.626c-.846-.388-1.3-.29-1.98-.864A6.048,6.048,0,0,0,150.35,72.02Z" transform="translate(-92.355 -46.298)" fill="none"/><path d="M135.339,17.207c-.161.406-.3.822-.86.86l-.248-.315a4.435,4.435,0,0,0,.958-3.26,2.676,2.676,0,0,0-1.4.094,4.994,4.994,0,0,0-2.186,1.854,1.749,1.749,0,0,0-.133,2,11.261,11.261,0,0,1,.619,1.889c.126.409.255.818.4,1.27.119-.1.175-.15.227-.2a8.874,8.874,0,0,1,2.77-2.231.738.738,0,0,0,.35-.266,2.148,2.148,0,0,0,0-2.375C135.409,16.571,135.444,16.945,135.339,17.207Z" transform="translate(-85.325 -9.367)" fill="none"/><path d="M137.756,108.34a.846.846,0,0,0-.762.766l-.073,7.555c0,.619,1.084.776,1.354.79,2.413.122,8.674-.171,8.674-.171h.091v-1.546c.017-.654.031-1.263,0-1.749.017-3.071-.923-4.036-1.661-5.414Z" transform="translate(-89.033 -70.426)" fill="none"/><path d="M140.223,55.77a11.063,11.063,0,0,0,1.13,0,7.47,7.47,0,0,0,2.494-.7c.85-.4,1.749-.7,2.693-1.049-.245-.238-.437-.434-.637-.619a10.929,10.929,0,0,0-3.053-2.508c-.4-.164-.8-.329-1.2-.479a4.715,4.715,0,0,0-4.2.49c.423,2.07.843,4.106,1.266,6.159.927.028,1.791.112,2.648.063a3.379,3.379,0,0,0,2.123-1.049,16.489,16.489,0,0,1-1.885.371,7.4,7.4,0,0,1-1.591-.112c-.157-.021-.294-.2-.437-.3l.042-.192A5.143,5.143,0,0,1,140.223,55.77Z" transform="translate(-89.377 -32.569)" fill="none"/><path d="M146.12,15.533a.349.349,0,0,0,.024.252c.514-.038,1-.052,1.472-.108.99-.119,2,.28,2.983-.133.983-2.207,1.277-3.214,1.186-3.959l-1.549,2.641c-.224-.1-.455-.143-.549-.273-.157-.231.035-.416.192-.6a5.319,5.319,0,0,0,.651-.843c.385-.7.731-1.4,1.081-2.119a3.5,3.5,0,0,0,.14-.595c-.5,0-.927-.059-1.347-.031-1.917.115-3.55.7-4.459,2.592a.923.923,0,0,0,0,.986A2.208,2.208,0,0,1,146.12,15.533Z" transform="translate(-94.808 -6.323)" fill="none"/><path d="M151,44.789a5.594,5.594,0,0,1,.609.241,8.933,8.933,0,0,1,2.84,2.284.906.906,0,0,0,.972.43,10.094,10.094,0,0,0,2.819-.937,2.819,2.819,0,0,0,1.333-1.249l-3.417.7-.35-.808c1.749-.189,3.368-.22,4.942-1.5a7.519,7.519,0,0,0-7.026-1.7A7.5,7.5,0,0,1,151,44.789Z" transform="translate(-98.188 -27.304)" fill="none"/><path d="M63.3,22.341A3.242,3.242,0,0,0,62.01,21.18c-.588-.294-1.161-.619-1.749-.944.189-.143.35-.28.511-.385a3.148,3.148,0,0,0,1.4-1.731,1.581,1.581,0,0,1,.647-.846c.567-.427.8-.773.245-1.158-.458-.311-.93-.605-1.4-.892a7.478,7.478,0,0,0-5.246-1.116,2.56,2.56,0,0,1-.563-.038c.224-.7.738-1.4-.084-2.011L56.82,9.67l-.28-.444c.35-1,.7-1.927.941-2.871a3.5,3.5,0,0,0,.168-1.626,4.05,4.05,0,0,1-.175-1.256.623.623,0,0,0-.577-.759,8.209,8.209,0,0,0-1.049-.077c-.276,0-.556.084-.832.091a4.634,4.634,0,0,0-2.525.8l-.941.626c-.22-.556-.42-1.07-.626-1.581a4.264,4.264,0,0,0-.455-1.049A1.3,1.3,0,0,1,50.1.587c.021-.469-.175-.619-.668-.647a1.581,1.581,0,0,0-.6.066c-.521.189-1.049.413-1.546.619a2.217,2.217,0,0,0-1.116,1.018l-.825,1.462a3.519,3.519,0,0,1-.059-1.651c.182-.616.182-.616-.469-.871a14.059,14.059,0,0,1-1.207.976c-1.441.962-2.9,1.889-4.347,2.847-.423.28-.787.651-1.217.923-1.27.808-2.578,1.553-3.847,2.382C32.5,8.834,30.834,10,29.176,11.174c-.99.7-1.92,1.5-2.906,2.214-.885.637-1.84,1.179-2.718,1.822q-2.739,2-5.435,4.075a1.1,1.1,0,0,1-1.116.2A34.833,34.833,0,0,0,11.888,18.2,47.441,47.441,0,0,0,6.9,17.445c-.654-.1-1.3-.227-1.955-.311-.591-.073-.7.052-.623.623a9.6,9.6,0,0,1,.245,1.273,8.415,8.415,0,0,0,.465,2.3,6.837,6.837,0,0,1,.595,2.259c-1.025.07-2.018-.259-3.015.119l3.092.7c-.031.7-.059,1.322-.087,1.959L0,26.828a2.655,2.655,0,0,0,.35.1,3.008,3.008,0,0,0,1.2,0,5.162,5.162,0,0,1,1.256.084c.857.024,1.714,0,2.567.042a.825.825,0,0,1,.549.322,6.519,6.519,0,0,1,.462.965l-2.1.64a4.968,4.968,0,0,0,2.448.185c.07.122.126.206.168.3.294.672.3.72-.35,1.074-.825.458-1.668.874-2.5,1.315a2.969,2.969,0,0,0-.325.238l.059.136c.6-.161,1.21-.287,1.791-.5s1.186-.535,1.847-.843a10.254,10.254,0,0,1,.734,3.232c-.049.7-.161,1.416-.224,2.126-.024.315,0,.633,0,1.049a8.442,8.442,0,0,0,1.441-.21l.493-.168c-.483,6-.392,21.2-.35,25.8h1.049c-.28-4.148-.038-7.572-.017-11.566H58.023V50.108s-2.819.2-3.763.227c-10.923.3-43.718-.227-43.718-.227.038-5.743-.224-11.073,0-13.595.035-.406.073-.741.115-.993a1.966,1.966,0,0,1,.115-.451,3.711,3.711,0,0,1,3.116-1.878c.409-.024.867-.045,1.357-.066.56-.021,1.161-.042,1.812-.059,2.693-.07,6.114-.1,9.716-.1h6.054c1.7,0,3.742.028,5.33.045l1.878.017,1.675.021c2.28.028,4.232.059,5.631.08l2.319.038a7.054,7.054,0,0,1,2.015.514,8.685,8.685,0,0,1,1.27.644,9.212,9.212,0,0,1,2.815,2.728H48.671a1.455,1.455,0,0,0-1.455,1.455v7.754h0a1.455,1.455,0,0,0,1.455,1.455H58a23.22,23.22,0,0,1-.08,2.368h.094v-.021a2.357,2.357,0,0,1,.72-1.693,2.014,2.014,0,0,1,.241-.185v-.916c-.035-.64,0-1.347,0-2.025s.035-1.326,0-1.9c-.518-4.358-2.123-7.026-3.847-8.66a1.714,1.714,0,0,0,1.749-1.049,9.645,9.645,0,0,0,1.277-.35c.7-.315.78-.8.273-1.4-.35-.441-.7-.9-1.074-1.4,1.354-.4,2.1-.063,2.536-1.434.7-.28,1.287-.465,1.826-.741A.6.6,0,0,0,61.79,27.3c-.462-.4-.913.038-1.375-.35a4.683,4.683,0,0,1-.35-.416,4.6,4.6,0,0,0,2.707-2.679c.514-.094.937-.311,1.011-.836ZM58,45.236v1.546h-.091s-6.26.294-8.674.171c-.269,0-1.354-.171-1.354-.79l.073-7.555a.846.846,0,0,1,.762-.766l7.621.217c.738,1.378,1.679,2.343,1.661,5.414.038.507.024,1.116.007,1.77Zm4.547-28.662c-1.574,1.284-3.2,1.315-4.942,1.5l.35.808,3.417-.7a2.819,2.819,0,0,1-1.333,1.249,10.094,10.094,0,0,1-2.819.937.906.906,0,0,1-.972-.43,8.933,8.933,0,0,0-2.84-2.284,5.6,5.6,0,0,0-.609-.241,7.616,7.616,0,0,0,2.714-2.536,7.559,7.559,0,0,1,7.051,1.7ZM50.629,23.712a7.4,7.4,0,0,0,1.591.112,16.491,16.491,0,0,0,1.885-.371A3.379,3.379,0,0,1,51.983,24.5c-.857.049-1.721-.035-2.648-.063-.423-2.053-.843-4.089-1.266-6.159a4.7,4.7,0,0,1,4.2-.49c.4.15.8.315,1.2.479a10.734,10.734,0,0,1,3.053,2.508c.2.185.392.381.637.619-.941.35-1.843.647-2.693,1.049a7.471,7.471,0,0,1-2.494.7c-.374.035-.752,0-1.13,0a5.142,5.142,0,0,0-.612.08l-.042.192C50.336,23.516,50.472,23.691,50.629,23.712ZM51.136,5.97c.909-1.885,2.543-2.476,4.459-2.592.42-.028.846.017,1.347.031A3.5,3.5,0,0,1,56.8,4c-.35.7-.7,1.427-1.081,2.119a5.32,5.32,0,0,1-.651.829c-.157.182-.35.367-.192.6.094.129.325.168.549.273L56.977,5.2c.091.745-.2,1.749-1.186,3.959-.983.413-1.994,0-2.983.133-.476.056-.958.07-1.472.108,0-.063-.063-.182-.024-.252a2.191,2.191,0,0,0-.182-2.189.923.923,0,0,1,.007-.993ZM52.966,10.1c.86,0,1.721,0,2.6-.017.206.752-.28,1.3-.546,1.868A6.873,6.873,0,0,1,53.8,13.793a11.066,11.066,0,0,1-1.77,1.315c-.227.161-.5.252-.717.427-.087.066-.059.269-.1.5a6.7,6.7,0,0,0,4.11-3.06c-.227,1.633-1.4,2.773-3.19,4.2a13.969,13.969,0,0,0-2.119-.028,13.818,13.818,0,0,0-2.036.588,29.9,29.9,0,0,1-.556-3.882c-.091-.7.413-1.137.8-1.612A5.617,5.617,0,0,1,52.966,10.1Zm-2.448-.619a.738.738,0,0,1-.35.266,9.024,9.024,0,0,0-2.77,2.231c-.052.052-.108.1-.227.2-.14-.451-.269-.86-.4-1.27a11.262,11.262,0,0,0-.619-1.889,1.749,1.749,0,0,1,.133-2,4.994,4.994,0,0,1,2.186-1.854,2.676,2.676,0,0,1,1.4-.094,4.453,4.453,0,0,1-.958,3.26l.248.315c.56-.038.7-.455.86-.86.1-.262.066-.637.511-.7a2.222,2.222,0,0,1-.021,2.378ZM46.027,3.263a2.676,2.676,0,0,0,.185-.42c.654-1.368.654-1.375,2.053-1.948.7-.283.7-.283,1.147-.157a2.487,2.487,0,0,1-.448,1.493c-.168.3-.157.308.15.7l.832-.874c.85,1.165,1.095,2.392.525,3.249a3.766,3.766,0,0,0,0-.444.549.549,0,0,0-.584-.553,3.874,3.874,0,0,0-2.843,1.1c-.458.385-.857.843-1.322,1.308a3.228,3.228,0,0,1-.147-.5A3.777,3.777,0,0,1,46.027,3.263ZM16.788,32.054a3.471,3.471,0,0,1,.024-.514c.024-.35-.122-.626-.392-.6a.462.462,0,0,0-.451.514c0,.21-.021.42-.028.63-.637.021-1.214.049-1.724.08a4.75,4.75,0,0,0-3.97,2.385,4.547,4.547,0,0,0-.3,1.42c-.392.14-.787.269-1.2.374.028-.546.038-1.018.077-1.49s.108-.86.14-1.291a1.441,1.441,0,0,0-.084-.528c-.266-.818-.518-1.64-.825-2.448-.262-.7-.609-1.35-.885-2.036a14.525,14.525,0,0,1-.7-2.015A7.012,7.012,0,0,1,6.4,24.954a9.681,9.681,0,0,0-.388-3.148,16.721,16.721,0,0,1-.542-1.98c-.115-.56-.136-1.14-.206-1.773.958.119,1.889.241,2.819.35.679.08,1.361.143,2.039.227a10.262,10.262,0,0,1,1.025.171c.867.189,1.749.4,2.606.584a1.088,1.088,0,0,1,.969.927,4.172,4.172,0,0,0,.2.577c.451-.388.224-.78.213-1.133.874.028,1.2.553,1.2,1.368.581-.2.185-.644.3-.923a.539.539,0,0,1,.556.528c.154.955.35,1.9.546,2.85a19.586,19.586,0,0,1,.493,2.676,10.492,10.492,0,0,0,.462,1.987c.262.972.542,1.938.832,2.969l-1.4.539c-.056-.483-.108-.958-.168-1.472h-.637a2.817,2.817,0,0,0,.287,1.749Zm32.775.409c-.171,0-11.024-.5-21.125-.521-1.707-.4-3.407-.045-5.117-.493-1.025-.266-2.046-.563-3.165-.874-.22-.605-.427-1.238-.661-1.938,2.417,1.231,4.158,1.647,5.5,1.252a15.779,15.779,0,0,1-2.966-.776c-.892-.486-1.784-.871-2.725-1.326-.108-.518-.224-1.081-.35-1.668,1.3.112,2.536.287,3.77.311a30.176,30.176,0,0,0,3.812-.175,9.545,9.545,0,0,0,3.616-.6,14.4,14.4,0,0,0-3.973.052,3.735,3.735,0,0,1-1.434.063,1.193,1.193,0,0,0-.458,0,16.137,16.137,0,0,1-3.7-.164,12.517,12.517,0,0,1-1.749-.35L18.6,24.093c.476-.024.658-.434.9-.752a5.047,5.047,0,0,1,1.6-1.486,1.92,1.92,0,0,0,.385-.252,18.445,18.445,0,0,1,3.179-2.1,21.684,21.684,0,0,1,3.081-1.437,11.221,11.221,0,0,1,1.563-.28,2.13,2.13,0,0,0-1.864-.136c-.591.248-1.221.406-1.833.612a20.164,20.164,0,0,0-3.935,2.375,11.964,11.964,0,0,0-1.577,1.2c-.476.423-.885.913-1.322,1.375l-.248.259c-.451-.72-.056-1.266.35-1.728.588-.7,1.27-1.308,1.91-1.962.031-.031.031-.094.056-.168-1.3.248-1.983,1.245-2.753,2.256a2.606,2.606,0,0,1-.084-1.567c.021-.094.157-.168.248-.238q1.794-1.354,3.592-2.707c.35-.259.7-.5,1.049-.755,1.277-.909,2.627-1.721,3.816-2.732,1.49-1.273,3.148-2.308,4.69-3.5a24.71,24.71,0,0,1,2.669-1.749C35.7,7.69,37.227,6.6,38.794,5.581c1.3-.846,2.606-1.682,3.9-2.536.549-.35,1.077-.748,1.71-1.189.063.511.112.927.161,1.343l.252,2.179a22.215,22.215,0,0,1,.248,2.249,12.922,12.922,0,0,0,.6,2.424,8.11,8.11,0,0,0,.35,1.077c.129.381.266.762.4,1.147a1.7,1.7,0,0,1,.108.35,86.264,86.264,0,0,0,1.644,9.716c.115.532.311,1.049.423,1.584.07.35,0,.7.084,1.049.35,1.633,1.224,2.287,1.749,3.637l-.059.024c.035.021.063.042.1.059a5.725,5.725,0,0,1,.185.637.979.979,0,0,1,.049.3,2.6,2.6,0,0,0,.091,1.724c.14.35.28.734.423,1.105Zm8.523.084c-1.189.853-2.4.311-3.634-.038-.133.416-.07.626.29.734.427.129.839.311,1.4.528a2.527,2.527,0,0,1-2.025.14,10.144,10.144,0,0,0-1.165-.727,4.111,4.111,0,0,1-1.273-1.605c-.189-.7,0-.724-.2-1.4a3.312,3.312,0,0,0-.126-.913c.154.091.3.175.458.248a20.807,20.807,0,0,0,3.337.63,4.625,4.625,0,0,1,2.941,2.4Zm3.469-4.8a2.987,2.987,0,0,1-1.924.626c-.612,0-1.228,0-1.836-.024a5.946,5.946,0,0,1-1.182-.234c-.56-.157-1.109-.35-1.682-.542.08.35.084.35,1.119.972a3.092,3.092,0,0,0,1.588.5h1.647c-.192.595,0,.241-.413.4-1.539.577-2.864.161-4.813,0-.829-.287-1.347-.378-1.861-.581a4.9,4.9,0,0,1-1.4-.759,1.266,1.266,0,0,1-.437-.539c-.259-1.095-.451-1.371-.682-2.483a8.394,8.394,0,0,0,3.34-.059,6.558,6.558,0,0,1,2.4-.052,11.846,11.846,0,0,1,2.585.7A6.342,6.342,0,0,1,59.586,26.9C60.254,27.462,60.713,27.364,61.555,27.752Zm.923-4.361a18.1,18.1,0,0,1-3.309.35c-.4-.049-.472.15-.318.836l2.829-.35c-.189.776-.822,1.049-1.4,1.4a1.57,1.57,0,0,1-1.714-.168,9.8,9.8,0,0,0-3.924-1.147c-.094-.017-.185-.042-.392-.087.35-.486.637-.881.944-1.252a1.207,1.207,0,0,1,.448-.269c.542-.227,1.091-.437,1.633-.665.605-.252.605-.259.511-.983l1.546-.462c1.357.619,2.8,1.081,3.767,2.5A2.7,2.7,0,0,1,62.479,23.39Z" transform="translate(0 0.065)"/><path d="M91.67,182.52H77.9a.066.066,0,0,1,0,.028H91.663A.159.159,0,0,0,91.67,182.52Z" transform="translate(-50.655 -118.661)"/><path d="M165.7,155.225V146.45h-.1v11.566h1.049v-.881a1.749,1.749,0,0,1-.241-.189A2.35,2.35,0,0,1,165.7,155.225Z" transform="translate(-107.682 -95.207)"/><path d="M39.935,125.59h-2.91c-.29,0-.525.168-.525.374s.234.374.525.374h2.91c.287,0,.525-.168.525-.374S40.221,125.59,39.935,125.59Z" transform="translate(-23.734 -81.642)"/><path d="M69.857,170.508a7.3,7.3,0,0,0-13.745,0c-3.742.35-14.364,0-14.364,0a7.3,7.3,0,0,0-13.745,0,.1.1,0,0,1-.028.08l-2.578-.08H24.348A1.588,1.588,0,0,0,22.76,172.1v2.329a1.007,1.007,0,0,0,1.011,1.007H28a7.3,7.3,0,0,0,13.745,0H56.112a7.3,7.3,0,0,0,13.745,0h4.274a1.011,1.011,0,0,0,1.011-1.007v-2.868a1.049,1.049,0,0,0-1.049-1.049H69.86ZM23.809,174.46a5.293,5.293,0,0,1,0-2.822c.14-.178.7-.129.923-.115.7.045,2.679.035,2.973.035a.087.087,0,0,1,0,.028,7.237,7.237,0,0,0-.136,1.4,7.621,7.621,0,0,0,.154,1.472C27.307,174.411,24.016,174.635,23.809,174.46Zm11.059,4.875a6.488,6.488,0,1,1,6.572-6.488A6.488,6.488,0,0,1,34.868,179.336Zm7.177-4.952a7.152,7.152,0,0,0,0-2.8.066.066,0,0,0,0-.028h13.77v.024a7.17,7.17,0,0,0,0,2.8S45.378,174.712,42.045,174.383Zm20.911,5.155a6.589,6.589,0,1,1,6.551-6.589A6.589,6.589,0,0,1,62.956,179.539Zm11.136-7.813a4.851,4.851,0,0,1,0,2.672c-.427.43-3.938,0-3.938,0a7.17,7.17,0,0,0,0-2.8s0-.018,0-.024h3.253S73.907,171.526,74.092,171.725Z" transform="translate(-14.8 -107.699)"/><path d="M129.152,174a4.3,4.3,0,1,0,4.232,4.3A4.3,4.3,0,0,0,129.152,174Zm.038,7.754a3.547,3.547,0,1,0,0-.007Z" transform="translate(-81.138 -113.12)"/><path d="M49.22,174a4.4,4.4,0,1,0,4.407,4.393A4.4,4.4,0,0,0,49.22,174Zm-.031,8.31a3.83,3.83,0,1,1,3.69-3.833,3.763,3.763,0,0,1-3.69,3.826Z" transform="translate(-29.144 -113.121)"/><path d="M39.935,129.59h-2.91c-.29,0-.525.178-.525.4s.234.4.525.4h2.91c.287,0,.525-.175.525-.4S40.221,129.59,39.935,129.59Z" transform="translate(-23.734 -84.243)"/><path d="M62.915,106.08h-9.7a1.5,1.5,0,0,0-1.5,1.493v7.754a1.5,1.5,0,0,0,1.5,1.493h9.7a1.493,1.493,0,0,0,1.493-1.493v-7.754A1.493,1.493,0,0,0,62.915,106.08Zm.444,9.478a.465.465,0,0,1-.458.472H52.948a.465.465,0,0,1-.455-.472v-8.216a.465.465,0,0,1,.455-.472H62.9a.465.465,0,0,1,.458.472Z" transform="translate(-33.631 -68.956)"/><path d="M104.5,106.08H94.807a1.5,1.5,0,0,0-1.5,1.493v7.754a1.5,1.5,0,0,0,1.5,1.493H104.5a1.493,1.493,0,0,0,1.493-1.493v-7.754A1.493,1.493,0,0,0,104.5,106.08Zm.658,9.177c0,.245-.294.822-.738.822l-9.6-.115a.7.7,0,0,1-.609-.56v-7.635c0-.245,0-.9.7-.9h9.566c.4,0,.476.458.476.7C104.943,107.573,105.254,113.026,105.156,115.257Z" transform="translate(-60.675 -68.956)"/><path d="M165.88,139.378v1.07h0v8.775a2.35,2.35,0,0,0,.717,1.721,1.749,1.749,0,0,0,.241.189,1.661,1.661,0,0,0,.941.3h.773a2.072,2.072,0,0,0,1.9-2.21V139.43a2.072,2.072,0,0,0-1.9-2.21h-.773a1.644,1.644,0,0,0-.937.3,2.012,2.012,0,0,0-.241.185A2.357,2.357,0,0,0,165.88,139.378Zm1.2-1.186a1.049,1.049,0,0,1,.7-.3h.773a1.38,1.38,0,0,1,1.2,1.511V149.2a1.382,1.382,0,0,1-1.2,1.511h-.773a1.049,1.049,0,0,1-.7-.3,1.661,1.661,0,0,1-.493-1.21v-9.8A1.654,1.654,0,0,1,167.076,138.192Z" transform="translate(-107.864 -89.205)"/></svg>