<svg xmlns="http://www.w3.org/2000/svg" width="40" height="40" viewBox="0 0 40 40"><rect width="40" height="40" fill="rgba(255,255,255,0)"/><g transform="translate(-317.598 -791.262)"><path d="M337.926,821.99a10.254,10.254,0,0,1-7.307-3.036,10.4,10.4,0,0,1,0-14.656,10.254,10.254,0,0,1,7.307-3.036h0a10.25,10.25,0,0,1,7.306,3.036,10.4,10.4,0,0,1,0,14.656A10.25,10.25,0,0,1,337.926,821.99Zm0-19.7a9.226,9.226,0,0,0-6.577,2.733,9.365,9.365,0,0,0,0,13.2,9.279,9.279,0,0,0,13.153,0h0a9.365,9.365,0,0,0,0-13.2A9.226,9.226,0,0,0,337.926,802.293Z" fill="#1a1a1a"/><path d="M333.91,816.17a.516.516,0,0,1-.365-.88l8.031-8.056a.515.515,0,1,1,.73.728l-8.031,8.056A.513.513,0,0,1,333.91,816.17Z" fill="#1a1a1a"/><path d="M341.941,816.17a.512.512,0,0,1-.365-.152l-8.031-8.056a.515.515,0,1,1,.73-.728l8.031,8.056a.516.516,0,0,1-.365.88Z" fill="#1a1a1a"/></g></svg>