<svg xmlns="http://www.w3.org/2000/svg" width="30" height="30" viewBox="0 0 30 30"><rect width="30" height="30" fill="rgba(255,255,255,0)"/><g transform="translate(-453.699 -692.563)"><path d="M478.878,718.29H459.215a.515.515,0,0,1-.515-.516v-19.7a.514.514,0,0,1,.515-.515h19.663a.514.514,0,0,1,.515.515v19.7A.515.515,0,0,1,478.878,718.29Zm-19.147-1.031h18.631V698.594H459.731Z" fill="#1a1a1a"/><path d="M474.216,715.481a.514.514,0,0,1-.515-.515v-14.08a.516.516,0,0,1,1.031,0v14.08A.515.515,0,0,1,474.216,715.481Z" fill="#1a1a1a"/><path d="M475.828,706.47h-3.223a.515.515,0,0,1,0-1.031h3.223a.515.515,0,0,1,0,1.031Z" fill="#1a1a1a"/><path d="M463.876,715.481a.514.514,0,0,1-.515-.515v-14.08a.516.516,0,0,1,1.031,0v14.08A.515.515,0,0,1,463.876,715.481Z" fill="#1a1a1a"/><path d="M465.488,704.206h-3.222a.515.515,0,1,1,0-1.03h3.222a.515.515,0,1,1,0,1.03Z" fill="#1a1a1a"/><path d="M469.047,715.481a.515.515,0,0,1-.516-.515v-14.08a.516.516,0,0,1,1.031,0v14.08A.514.514,0,0,1,469.047,715.481Z" fill="#1a1a1a"/><path d="M470.657,712.677h-3.221a.516.516,0,1,1,0-1.031h3.221a.516.516,0,1,1,0,1.031Z" fill="#1a1a1a"/></g></svg>