<svg xmlns="http://www.w3.org/2000/svg" width="20.827" height="26.011" viewBox="0 0 20.827 26.011"><g transform="translate(0)"><g transform="translate(-232.701 -172.629)" fill="none" stroke-miterlimit="10"><path d="M253.413,180.748a8.829,8.829,0,0,0-5.948-7.353,11.8,11.8,0,0,0-7.812-.2,9.46,9.46,0,0,0-6.909,8.36,8.347,8.347,0,0,0,1.574,5.853,4.441,4.441,0,0,0,1.551,1.358c.421.221.533.168.646-.287.1-.424.186-.856.321-1.271a1.011,1.011,0,0,0-.2-1.119,2.13,2.13,0,0,1-.3-.491,6.938,6.938,0,0,1,1.881-8.545,7.583,7.583,0,0,1,7.827-1.02,5.749,5.749,0,0,1,3.622,4.193,9.321,9.321,0,0,1-.988,6.954,4.521,4.521,0,0,1-3.778,2.5,2.475,2.475,0,0,1-2.685-2,3.082,3.082,0,0,1,.138-1.389c.332-1.146.675-2.29,1-3.438a5.707,5.707,0,0,0,.243-1.926,1.978,1.978,0,0,0-2.529-1.9,2.813,2.813,0,0,0-1.913,1.663,5.553,5.553,0,0,0-.11,4.354,1.058,1.058,0,0,1,.037.621c-.482,2.021-.915,4.055-1.451,6.063a15.433,15.433,0,0,0-.508,5.885,5.991,5.991,0,0,0,.217.844l.847.179c.025-.032.149-.259.269-.5a19.877,19.877,0,0,0,2.078-4.963c.182-.843.43-1.672.654-2.506.023-.087.01-.218.116-.246s.146.1.2.175a3.19,3.19,0,0,0,.911.841,5.047,5.047,0,0,0,3.081.754,7.3,7.3,0,0,0,4.894-2.154A10.6,10.6,0,0,0,253.413,180.748Z" stroke="none"/><path d="M 243.4325866699219 173.6286773681641 C 242.3252563476562 173.6286773681641 241.1466369628906 173.8059997558594 239.9293060302734 174.1557769775391 C 238.2205200195312 174.6464233398438 236.7968902587891 175.5592193603516 235.6980285644531 176.8687286376953 C 234.5567169189453 178.2290954589844 233.9160919189453 179.7928009033203 233.7395477294922 181.6492919921875 C 233.5559844970703 183.5772857666016 234.0107116699219 185.2697906494141 235.129638671875 186.8234710693359 C 235.3056640625 187.0678405761719 235.5048065185547 187.2839050292969 235.7252655029297 187.4700927734375 C 235.7714538574219 187.2822418212891 235.8229217529297 187.0911712646484 235.8860168457031 186.8974151611328 C 235.9046630859375 186.8402709960938 235.9129180908203 186.80224609375 235.9165802001953 186.7792663574219 C 235.9152374267578 186.7778015136719 235.9138031005859 186.7762756347656 235.9122619628906 186.774658203125 C 235.7068328857422 186.5567321777344 235.5858154296875 186.3157196044922 235.4974517822266 186.1397399902344 C 235.4837188720703 186.1124114990234 235.4700775146484 186.0851745605469 235.4552764892578 186.0566711425781 C 233.7417907714844 182.7427215576172 234.6699371337891 178.5314178466797 237.6140747070312 176.2609405517578 C 239.2223815917969 175.0201416015625 240.9917907714844 174.3909759521484 242.8731536865234 174.3909454345703 C 244.0238189697266 174.3909149169922 245.2163696289062 174.6301574707031 246.4178771972656 175.1021270751953 C 248.6335296630859 175.9729156494141 250.0961303710938 177.6652221679688 250.6475524902344 179.9961090087891 C 251.2873382568359 182.7009887695312 250.9196929931641 185.2849731445312 249.5547637939453 187.6763916015625 C 248.4982757568359 189.5268402099609 246.9122772216797 190.5662384033203 244.9682006835938 190.6822662353516 C 244.8907318115234 190.6868896484375 244.8121643066406 190.6892242431641 244.7346954345703 190.6892242431641 C 242.9617919921875 190.6892242431641 241.5237731933594 189.5207214355469 241.2376403808594 187.8473358154297 C 241.1165771484375 187.1380615234375 241.2612915039062 186.4939575195312 241.4007873535156 186.0123138427734 C 241.5375213623047 185.5398254394531 241.6761779785156 185.0678405761719 241.8148498535156 184.5958251953125 C 242.0091400146484 183.9344635009766 242.2100372314453 183.2505798339844 242.4015197753906 182.5781707763672 C 242.5701599121094 181.9861602783203 242.6377410888672 181.4661102294922 242.608154296875 180.9887390136719 C 242.5686798095703 180.3567962646484 242.1945648193359 179.9642181396484 241.6318206787109 179.9642181396484 C 241.5280609130859 179.9642181396484 241.4188079833984 179.9775848388672 241.3072662353516 180.0038909912109 C 240.9658966064453 180.0844573974609 240.4659881591797 180.2882232666016 240.0673980712891 181.1245422363281 C 239.5569610595703 182.1934051513672 239.5349884033203 183.3700866699219 240.0006408691406 184.7230987548828 C 240.1373596191406 185.1221008300781 240.1579895019531 185.5074310302734 240.0638885498047 185.9002990722656 C 239.9082489013672 186.5524749755859 239.7548370361328 187.2189788818359 239.6064910888672 187.8635406494141 C 239.2949676513672 189.2169952392578 238.9728393554688 190.6165313720703 238.606201171875 191.9888153076172 C 238.1516723632812 193.6920471191406 237.9708557128906 195.2566986083984 238.0580749511719 196.7466125488281 C 238.7388916015625 195.4168701171875 239.2747497558594 194.3141937255859 239.5656280517578 192.9694519042969 C 239.7051086425781 192.3248901367188 239.8802642822266 191.6913757324219 240.0496520996094 191.0787200927734 C 240.1075439453125 190.8693542480469 240.1654205322266 190.6600189208984 240.2219848632812 190.4498596191406 C 240.3328094482422 189.7305297851562 240.8407440185547 189.5201416015625 241.0552978515625 189.4628295898438 C 241.1510772705078 189.4373321533203 241.2490539550781 189.4243774414062 241.3464202880859 189.4243774414062 C 241.5948486328125 189.4243621826172 242.0521545410156 189.5075531005859 242.3498077392578 190.0594177246094 C 242.5013275146484 190.2613220214844 242.6999359130859 190.4386444091797 242.9560852050781 190.6007385253906 C 243.6024017333984 191.0103607177734 244.3160705566406 191.20947265625 245.1378326416016 191.20947265625 C 245.2377471923828 191.20947265625 245.3408203125 191.2064819335938 245.4447784423828 191.2005157470703 C 247.1145935058594 191.1058502197266 248.5425872802734 190.4786071777344 249.6889801025391 189.3363189697266 C 251.9396514892578 187.0929718017578 252.8588104248047 184.2468566894531 252.4208526611328 180.8769226074219 C 252.0184020996094 177.7765808105469 250.2264709472656 175.5720520019531 247.0946807861328 174.3245086669922 C 245.936279296875 173.8628387451172 244.7042999267578 173.6287231445312 243.4327392578125 173.6286773681641 L 243.4325866699219 173.6286773681641 M 243.4329528808594 172.6286773681641 C 244.7874603271484 172.6287231445312 246.1349792480469 172.8655242919922 247.4649047851562 173.3955688476562 C 250.8052673339844 174.7261962890625 252.9451904296875 177.1480712890625 253.4125366210938 180.7481994628906 C 253.8702697753906 184.2703552246094 252.9781799316406 187.4697265625 250.3949279785156 190.0445861816406 C 249.0534973144531 191.3812103271484 247.4061279296875 192.0909271240234 245.5013732910156 192.1989135742188 C 244.3914642333984 192.2625274658203 243.3626403808594 192.0423278808594 242.4207763671875 191.4454040527344 C 242.0662231445312 191.2210388183594 241.7554626464844 190.9492797851562 241.5094909667969 190.6043090820312 C 241.4584808349609 190.5329284667969 241.4321594238281 190.3973541259766 241.3127136230469 190.4291381835938 C 241.2071228027344 190.4573364257812 241.2203369140625 190.5881195068359 241.1969299316406 190.6751098632812 C 240.9731750488281 191.5090026855469 240.7254028320312 192.3380889892578 240.5429992675781 193.1809692382812 C 240.1566772460938 194.9669494628906 239.4031677246094 196.3023681640625 238.4654846191406 198.1441345214844 C 238.3449096679688 198.381103515625 238.220703125 198.6078796386719 238.1961059570312 198.6396484375 L 237.3490295410156 198.4602966308594 C 237.3490295410156 198.4602966308594 237.1696472167969 197.9197692871094 237.1324768066406 197.6162109375 C 236.8912963867188 195.6232604980469 237.1222534179688 193.6711120605469 237.6400146484375 191.7309722900391 C 238.1763305664062 189.7236328125 238.6088562011719 187.6893005371094 239.0912170410156 185.6681671142578 C 239.1427917480469 185.4527893066406 239.1278076171875 185.2608184814453 239.0546264648438 185.0472412109375 C 238.55126953125 183.5846405029297 238.4828796386719 182.1220397949219 239.1650085449219 180.6936187744141 C 239.5567321777344 179.8717193603516 240.1548767089844 179.2484130859375 241.0775451660156 179.0306396484375 C 242.4153442382812 178.7151336669922 243.5204162597656 179.5531616210938 243.606201171875 180.9263916015625 C 243.6470031738281 181.5845031738281 243.5420227050781 182.224609375 243.3632507324219 182.8521423339844 C 243.0362854003906 184.0003814697266 242.6931457519531 185.1438293457031 242.3613891601562 186.290283203125 C 242.2300109863281 186.7438201904297 242.1423950195312 187.2045593261719 242.223388671875 187.6791076660156 C 242.4459838867188 188.9809265136719 243.6208343505859 189.7606353759766 244.9086608886719 189.6840362548828 C 246.6478271484375 189.5802459716797 247.8608703613281 188.6263732910156 248.6863403320312 187.1805725097656 C 249.9275817871094 185.005859375 250.2479553222656 182.6511535644531 249.6744079589844 180.2262878417969 C 249.2034912109375 178.2357482910156 247.9586486816406 176.7821350097656 246.0520935058594 176.0328216552734 C 243.2816314697266 174.9445953369141 240.6113891601562 175.2115325927734 238.2249145507812 177.0527038574219 C 235.6476745605469 179.0402221679688 234.8701477050781 182.7477416992188 236.3435668945312 185.5973815917969 C 236.4317626953125 185.7671508789062 236.5115356445312 185.9525146484375 236.6399230957031 186.0887145996094 C 236.9608764648438 186.4264678955078 236.9740905761719 186.7864074707031 236.8367004394531 187.2075500488281 C 236.7017211914062 187.6221008300781 236.6207275390625 188.0540466308594 236.5157470703125 188.4781951904297 C 236.4029693603516 188.9335174560547 236.2902069091797 188.9863128662109 235.86962890625 188.7655639648438 C 235.2445068359375 188.4374084472656 234.7291870117188 187.9784545898438 234.3182373046875 187.4079437255859 C 233.0566101074219 185.6561584472656 232.5394592285156 183.7034301757812 232.7440490722656 181.5545043945312 C 232.9342041015625 179.5549621582031 233.6379089355469 177.7684020996094 234.9319458007812 176.2259979248047 C 236.1899719238281 174.726806640625 237.7833862304688 173.7315368652344 239.6533203125 173.1946105957031 C 240.914306640625 172.8323059082031 242.1766052246094 172.6286468505859 243.4329528808594 172.6286773681641 Z" stroke="none" fill="#1a1a1a"/></g></g></svg>