<svg xmlns="http://www.w3.org/2000/svg" width="28" height="28" viewBox="0 0 28 28"><g fill="transparent" stroke="#1a1a1a" stroke-width="1"><rect width="28" height="28" stroke="none"/><rect x="0.5" y="0.5" width="27" height="27" fill="none"/></g><g transform="translate(-1933.705 -1350.35)"><path d="M1945.293,1374.349a.717.717,0,0,1-.541-.261l-7.822-9.109a1,1,0,0,1,0-1.26.693.693,0,0,1,1.083,0l7.281,8.479,15.1-17.588a.692.692,0,0,1,1.083,0,1,1,0,0,1,0,1.26l-15.646,18.218A.716.716,0,0,1,1945.293,1374.349Z" transform="translate(0)"/></g></svg>