<svg xmlns="http://www.w3.org/2000/svg" width="45" height="45" viewBox="0 0 45 45"><rect width="45" height="45" fill="none"/><path d="M19961.893,11421.118l-4.59-4.55a8.669,8.669,0,0,1-5.777,2.186,8.836,8.836,0,0,1-8.826-8.783,8.639,8.639,0,0,1,2.539-6.182,8.8,8.8,0,0,1,14.971,6.252,8.627,8.627,0,0,1-2.232,5.859l4.592,4.547a.474.474,0,0,1,0,.671.491.491,0,0,1-.34.136A.478.478,0,0,1,19961.893,11421.118Zm-15.953-16.628a7.663,7.663,0,0,0-2.248,5.476,7.816,7.816,0,0,0,13.281,5.557,7.653,7.653,0,0,0,2.248-5.481,7.841,7.841,0,0,0-7.834-7.795A7.667,7.667,0,0,0,19945.939,11404.49Z" transform="translate(-19930.699 -11388.256)" fill="#1a1a1a" stroke="rgba(0,0,0,0)" stroke-miterlimit="10" stroke-width="1"/></svg>