<svg xmlns="http://www.w3.org/2000/svg" width="21.873" height="21.873" viewBox="0 0 21.873 21.873"><g transform="translate(0.5 0.5)"><path d="M376.71,392.11l.331.2a10.426,10.426,0,1,0-3.419-3.264l.209.319-1.326,4.292Z" transform="translate(-371.918 -372.9)" fill="none" stroke="#1a1a1a" stroke-linecap="round" stroke-linejoin="round" stroke-width="1"/><path d="M381.983,381.273a1.867,1.867,0,0,0-.758.548,3.506,3.506,0,0,0-1.036,2.438,6.875,6.875,0,0,0,1.4,3.951,12.028,12.028,0,0,0,5.594,5.043,11.236,11.236,0,0,0,2.381.794A3.557,3.557,0,0,0,392.347,393a3.618,3.618,0,0,0,.726-2.061c0-.282-.008-.318-.107-.429a18.8,18.8,0,0,0-3.016-1.576c-.27-.035-.377.04-.821.56-.69.806-.9,1.016-1.027,1.016a7.642,7.642,0,0,1-1.556-.782,8.7,8.7,0,0,1-2.769-3.038.972.972,0,0,1-.107-.226,1.912,1.912,0,0,1,.281-.349,2.821,2.821,0,0,0,.655-.981c.183-.433.175-.548-.067-1.2-.349-.953-.46-1.251-.651-1.763-.2-.532-.349-.767-.551-.85A4.285,4.285,0,0,0,381.983,381.273Z" transform="translate(-376.193 -377.212)" fill="none" stroke="#1a1a1a" stroke-miterlimit="10" stroke-width="1"/></g></svg>