<svg xmlns="http://www.w3.org/2000/svg" width="10" height="20" viewBox="0 0 10 20"><g transform="translate(0)"><g transform="translate(-378.613 -270.891)" fill="none" stroke-linecap="round" stroke-miterlimit="10"><path d="M387.032,274.486h1.581v-3.592l-2.382,0c-3.374,0-4.975,2.1-4.975,5.08V278.8h-2.643v3.413h2.643v8.681h3.963V282.21h2.643l.751-3.411h-3.393v-2.33A1.792,1.792,0,0,1,387.032,274.486Z" stroke="none"/><path d="M 386.2298889160156 271.8909912109375 C 382.94482421875 271.8912658691406 382.2555236816406 274.10986328125 382.2555236816406 275.9710693359375 L 382.2555236816406 279.7978515625 L 379.6130065917969 279.7978515625 L 379.6130065917969 281.2103881835938 L 382.2555236816406 281.2103881835938 L 382.2555236816406 289.8910217285156 L 384.2186584472656 289.8910217285156 L 384.2186584472656 281.2103881835938 L 387.0572814941406 281.2103881835938 L 387.3677978515625 279.7991638183594 L 384.2186584472656 279.7991638183594 L 384.2186584472656 276.4687805175781 C 384.2186584472656 274.7124633789062 385.3754272460938 273.48583984375 387.0316772460938 273.48583984375 L 387.6130065917969 273.48583984375 L 387.6130065917969 271.8925476074219 L 386.2298889160156 271.8909912109375 M 386.2307434082031 270.8909912109375 L 388.6130065917969 270.8936767578125 L 388.6130065917969 274.48583984375 L 387.0316772460938 274.48583984375 C 385.7182006835938 274.48583984375 385.2186584472656 275.5145568847656 385.2186584472656 276.4687805175781 L 385.2186584472656 278.7991638183594 L 388.6117248535156 278.7991638183594 L 387.8611755371094 282.2103881835938 L 385.2186584472656 282.2103881835938 L 385.2186584472656 290.8910217285156 L 381.2555236816406 290.8910217285156 L 381.2555236816406 282.2103881835938 L 378.6130065917969 282.2103881835938 L 378.6130065917969 278.7978515625 L 381.2555236816406 278.7978515625 L 381.2555236816406 275.9710693359375 C 381.2555236816406 272.9870300292969 382.8565368652344 270.8909912109375 386.2307434082031 270.8909912109375 Z" stroke="none" fill="#1a1a1a"/></g></g></svg>