<svg xmlns="http://www.w3.org/2000/svg" width="21.31" height="21.124" viewBox="0 0 21.31 21.124"><g transform="translate(-369.823 -74.039)" fill="none" stroke-miterlimit="10"><path d="M369.823,79.7a8.149,8.149,0,0,1,.892-2.818A5.932,5.932,0,0,1,376,74.093q4.465-.11,8.934,0a5.961,5.961,0,0,1,5.05,2.466,6.535,6.535,0,0,1,1.107,3.753c.043,2.86.063,5.724,0,8.584a5.841,5.841,0,0,1-3.01,5.44,6.805,6.805,0,0,1-3.2.789c-2.939.034-5.88.063-8.817,0a5.971,5.971,0,0,1-5.345-2.791,8.139,8.139,0,0,1-.892-2.817Z" stroke="none"/><path d="M 380.4148254394531 75.03936004638672 C 378.9508056640625 75.03936004638672 377.4741516113281 75.05736541748047 376.0259399414062 75.09288787841797 C 373.9472961425781 75.14382934570312 372.4889831542969 75.89950561523438 371.567626953125 77.40313720703125 C 371.1504211425781 78.08397674560547 370.9922180175781 78.91007995605469 370.82470703125 79.78467559814453 L 370.822998046875 79.79359436035156 L 370.8248291015625 89.42800903320312 C 370.9922790527344 90.30250549316406 371.1504821777344 91.12850952148438 371.5673828125 91.80807495117188 C 372.5059814453125 93.338134765625 373.9407958984375 94.07361602783203 376.0827331542969 94.1226806640625 C 377.2694091796875 94.14973449707031 378.5369567871094 94.16289520263672 379.9577331542969 94.16289520263672 C 381.5809326171875 94.16289520263672 383.2056579589844 94.14590454101562 384.8656616210938 94.12698364257812 C 385.8878784179688 94.11505889892578 386.8086547851562 93.890380859375 387.6026611328125 93.45909881591797 C 389.2485961914062 92.56554412841797 390.0391235351562 91.10891723632812 390.0905456542969 88.87494659423828 C 390.1607971191406 85.82952880859375 390.1311645507812 82.84607696533203 390.0928955078125 80.32909393310547 C 390.0735473632812 79.03897094726562 389.7707214355469 77.99440002441406 389.1670532226562 77.13552093505859 C 388.2350158691406 75.80888366699219 386.8428955078125 75.14122009277344 384.9109802246094 75.09437561035156 C 383.412109375 75.05786895751953 381.8993835449219 75.03936004638672 380.4148254394531 75.03936004638672 M 380.4148254394531 74.03936004638672 C 381.9221801757812 74.03936004638672 383.4291076660156 74.05799102783203 384.9353332519531 74.09468078613281 C 386.956298828125 74.1436767578125 388.7547912597656 74.80917358398438 389.9852905273438 76.56065368652344 C 390.7777709960938 77.68814086914062 391.07275390625 78.9796142578125 391.0927734375 80.31409454345703 C 391.1362609863281 83.17456817626953 391.15625 86.03804016113281 391.0902709960938 88.89801025390625 C 391.0372619628906 91.20146942138672 390.2367553710938 93.16694641113281 388.0797729492188 94.33793640136719 C 387.0838012695312 94.87892913818359 385.9913330078125 95.11391448974609 384.8773193359375 95.12691497802734 C 381.9383239746094 95.16043853759766 378.9973754882812 95.18942260742188 376.0599365234375 95.12241363525391 C 373.85546875 95.07192993164062 371.9400024414062 94.32792663574219 370.7149963378906 92.33097076416016 C 370.1840209960938 91.46546936035156 370.010009765625 90.48748016357422 369.822998046875 89.51348876953125 L 369.822998046875 79.6986083984375 C 370.010009765625 78.72462463378906 370.1840209960938 77.74712371826172 370.7149963378906 76.88064575195312 C 371.9254760742188 74.90516662597656 373.8184509277344 74.14669036865234 376.0014343261719 74.09318542480469 C 377.4716796875 74.05712127685547 378.9434509277344 74.03936004638672 380.4148254394531 74.03936004638672 Z" stroke="none" fill="#1a1a1a"/></g><g transform="translate(-377.302 -81.498)" fill="none" stroke-miterlimit="10"><path d="M392.8,92.075a4.85,4.85,0,1,0-4.861,4.789A4.845,4.845,0,0,0,392.8,92.075Z" stroke="none"/><path d="M 387.9605712890625 95.86391448974609 C 388.9730529785156 95.86391448974609 389.9330139160156 95.46561431884766 390.66357421875 94.74239349365234 C 391.3921813964844 94.02109527587891 391.7943420410156 93.07323455810547 391.7959594726562 92.07319641113281 C 391.7998352050781 89.98275756835938 390.0760803222656 88.27304077148438 387.953857421875 88.26195526123047 L 387.9331665039062 88.26189422607422 C 386.9205627441406 88.26189422607422 385.9605102539062 88.66018676757812 385.2298889160156 89.38340759277344 C 384.5011901855469 90.10469055175781 384.0988464355469 91.05264282226562 384.0969848632812 92.05237579345703 C 384.0936279296875 94.14342498779297 385.8175659179688 95.85324096679688 387.939697265625 95.86385345458984 L 387.9605712890625 95.86391448974609 M 387.9603881835938 96.86391448974609 C 387.9519653320312 96.86391448974609 387.943359375 96.8638916015625 387.9349365234375 96.86384582519531 C 385.2647094726562 96.85049438476562 383.0927429199219 94.68943786621094 383.0969848632812 92.05076599121094 C 383.1018371582031 89.427734375 385.2918090820312 87.26189422607422 387.9331665039062 87.26189422607422 C 387.9415893554688 87.26189422607422 387.9501953125 87.26191711425781 387.9586181640625 87.261962890625 C 390.6288452148438 87.27591705322266 392.8008422851562 89.43637084960938 392.7959594726562 92.07504272460938 C 392.7917175292969 94.69807434082031 390.6017456054688 96.864013671875 387.9603881835938 96.86391448974609 Z" stroke="none" fill="#1a1a1a"/></g><path d="M401.253,81.326a1.511,1.511,0,0,1,1.507,1.507,1.5,1.5,0,0,1-3,.013A1.5,1.5,0,0,1,401.253,81.326Z" transform="translate(-384.948 -78.199)" fill="#1a1a1a"/></svg>