<svg xmlns="http://www.w3.org/2000/svg" width="181.369" height="22.738" viewBox="0 0 181.369 22.738"><path d="M3.476-28.19v-8.253H11.2a1.85,1.85,0,0,1,2.077,1.712v-3.79A1.865,1.865,0,0,1,11.2-36.808H3.476V-43.8a1.532,1.532,0,0,1,1.46-1.712h7.832c1.909,0,3.284.7,3.818,2.611l-.814-2.976H-.061A1.859,1.859,0,0,1,1.707-43.8V-28.19A1.851,1.851,0,0,1-.061-26.141H5.244A1.851,1.851,0,0,1,3.476-28.19Zm19.229,0V-48.373l-2.723.393c.758,0,1.095.7,1.095,1.375V-28.19a1.859,1.859,0,0,1-1.768,2.077h5.137C23.266-26.112,22.7-27.123,22.7-28.19Zm17.629-4.969a6.982,6.982,0,0,0-7.158-7.3,7,7,0,0,0-7.158,7.3,6.982,6.982,0,0,0,7.158,7.3A6.966,6.966,0,0,0,40.334-33.158Zm-12.632,0c0-3.256,1.712-7.1,5.474-7.1s5.474,3.846,5.474,7.1c0,3.284-1.712,7.1-5.474,7.1S27.7-29.874,27.7-33.158ZM64.447-39.98c-1.263-.028-2.554-.028-3.846-.028.674,0,1.4.365,1.4,1.095,0,.758-4.772,9.8-5.446,11.088l-3.4-6.906,1.965-3.958a2.459,2.459,0,0,1,2.19-1.291c-1.291-.028-2.583-.028-3.874-.028.674,0,1.432.337,1.432,1.095a22.01,22.01,0,0,1-1.825,3.9,26.641,26.641,0,0,1-1.825-3.9c0-.758.758-1.095,1.4-1.095-1.8,0-3.621-.028-5.446.028a2.523,2.523,0,0,1,2.358,1.6l2.583,5.221-2.695,5.334c-.561-1.151-4.969-10.358-5.221-10.836-.393-.842.393-1.347,1.291-1.347-1.8,0-3.621-.028-5.446.028a2.484,2.484,0,0,1,2.33,1.628l6.288,12.716,3.593-7.242,3.565,7.242,6.26-12.716A2.591,2.591,0,0,1,64.447-39.98ZM72.251-26c6.176-1.712,6.709-11.509,12.688-13.9a4.5,4.5,0,0,1,1.6-.309,4.435,4.435,0,0,1,2.021.533,1.117,1.117,0,0,0-.954,1.095A1.115,1.115,0,0,0,88.7-37.481,1.115,1.115,0,0,0,89.8-38.576a1.091,1.091,0,0,0-.449-.9,4.366,4.366,0,0,0-2.779-.926c-2.19,0-4.014,1.544-5.305,3.2v-2.947l-2.695.393c.758,0,1.067.7,1.067,1.375v3.593c-2.133,3.593-3.79,7.663-7.411,8.449a4.637,4.637,0,0,1-1.235.14c-3.79,0-5.67-3.425-5.67-6.849a8.924,8.924,0,0,1,.168-1.74H75.9c.028-3.369-2.695-5.5-5.895-5.5-4.155,0-6.428,3.4-6.428,7.27,0,4.014,2.414,7.327,6.653,7.327A7.058,7.058,0,0,0,72.251-26Zm-1.6-13.727a4.913,4.913,0,0,1,4.491,2.751,2.074,2.074,0,0,1,.253.926c0,.73-.589,1.011-1.263,1.011h-8.59C66.131-37.537,67.9-39.727,70.651-39.727ZM81.262-28.19v-7.972a6.314,6.314,0,0,0-1.628,4.014v3.958c0,1.067-.561,2.077-1.74,2.077H83.03A1.859,1.859,0,0,1,81.262-28.19Zm20.352-.028v-4.548h7.327a6.375,6.375,0,0,0,6.709-6.569A6.391,6.391,0,0,0,108.94-45.9H98.076a1.859,1.859,0,0,1,1.768,2.077v15.608a1.836,1.836,0,0,1-1.768,2.049h5.305C102.231-26.141,101.641-27.151,101.613-28.218Zm0-15.664c0-1.011.281-1.684,1.46-1.684h4.491a5.964,5.964,0,0,1,6.148,6.232,5.948,5.948,0,0,1-6.148,6.232h-5.951Zm30.233,10.723a6.982,6.982,0,0,0-7.158-7.3,7,7,0,0,0-7.158,7.3,6.982,6.982,0,0,0,7.158,7.3A6.966,6.966,0,0,0,131.846-33.158Zm-12.632,0c0-3.256,1.712-7.1,5.474-7.1s5.474,3.846,5.474,7.1c0,3.284-1.712,7.1-5.474,7.1S119.214-29.874,119.214-33.158Zm36.745-6.821c-1.263-.028-2.554-.028-3.846-.028.674,0,1.4.365,1.4,1.095,0,.758-4.772,9.8-5.446,11.088l-3.4-6.906,1.965-3.958a2.459,2.459,0,0,1,2.19-1.291c-1.291-.028-2.583-.028-3.874-.028.674,0,1.432.337,1.432,1.095a22.01,22.01,0,0,1-1.825,3.9,26.642,26.642,0,0,1-1.825-3.9c0-.758.758-1.095,1.4-1.095-1.8,0-3.621-.028-5.446.028a2.523,2.523,0,0,1,2.358,1.6l2.583,5.221-2.695,5.334c-.561-1.151-4.969-10.358-5.221-10.836-.393-.842.393-1.347,1.291-1.347-1.8,0-3.621-.028-5.446.028a2.484,2.484,0,0,1,2.33,1.628l6.288,12.716,3.593-7.242,3.565,7.242,6.26-12.716A2.591,2.591,0,0,1,155.959-39.98Zm7.8,13.98c6.176-1.712,6.709-11.509,12.688-13.9a4.5,4.5,0,0,1,1.6-.309,4.435,4.435,0,0,1,2.021.533,1.117,1.117,0,0,0-.954,1.095,1.115,1.115,0,0,0,1.095,1.095,1.115,1.115,0,0,0,1.095-1.095,1.091,1.091,0,0,0-.449-.9,4.366,4.366,0,0,0-2.779-.926c-2.19,0-4.014,1.544-5.305,3.2v-2.947l-2.695.393c.758,0,1.067.7,1.067,1.375v3.593c-2.133,3.593-3.79,7.663-7.411,8.449a4.638,4.638,0,0,1-1.235.14c-3.79,0-5.67-3.425-5.67-6.849a8.924,8.924,0,0,1,.168-1.74h10.414c.028-3.369-2.695-5.5-5.895-5.5-4.155,0-6.428,3.4-6.428,7.27,0,4.014,2.414,7.327,6.653,7.327A7.058,7.058,0,0,0,163.763-26Zm-1.6-13.727a4.913,4.913,0,0,1,4.491,2.751,2.074,2.074,0,0,1,.253.926c0,.73-.59,1.011-1.263,1.011h-8.59C157.643-37.537,159.412-39.727,162.163-39.727ZM172.774-28.19v-7.972a6.314,6.314,0,0,0-1.628,4.014v3.958c0,1.067-.561,2.077-1.74,2.077h5.137A1.859,1.859,0,0,1,172.774-28.19Z" transform="translate(0.061 48.373)" fill="#1a1a1a"/></svg>