<svg xmlns="http://www.w3.org/2000/svg" width="45" height="45" viewBox="0 0 45 45"><rect width="45" height="45" fill="none"/><g transform="translate(-315.637 -631.225)"><path d="M337.926,655.1a5.94,5.94,0,1,1,5.91-5.94A5.931,5.931,0,0,1,337.926,655.1Zm0-10.849a4.909,4.909,0,1,0,4.879,4.909A4.9,4.9,0,0,0,337.926,644.256Z" fill="#1a1a1a"/><path d="M346.7,663.952a.515.515,0,0,1-.515-.515,8.258,8.258,0,1,0-16.516,0,.516.516,0,0,1-1.031,0,9.289,9.289,0,1,1,18.577,0A.515.515,0,0,1,346.7,663.952Z" fill="#1a1a1a"/></g></svg>